<svg width="1500" height="1500" viewBox="0 0 1500 1500" fill="none" xmlns="http://www.w3.org/2000/svg">
<path d="M718.541 179.636V294.022H780.54V177.15C780.54 177.15 754.7 172.883 752.12 186.347C752.12 186.347 738.566 162.484 718.541 179.636Z" fill="#FEBC12"/>
<path d="M718.234 229.642L716.135 151.838L749.802 113.267L782.069 155.152L783.468 222.972C783.468 222.972 854.343 196.374 847.304 133.236C840.308 70.0561 770.133 26.8453 715.392 53.4429C660.651 80.0406 597.515 147.198 718.19 229.642H718.234Z" fill="#FEBC12"/>
<path d="M854.3 140.112C854.3 85.6326 807.516 41.2617 749.977 41.2617C692.438 41.2617 645.654 85.5912 645.654 140.112C645.654 181.044 671.888 217.585 711.326 232.21V324.473C711.326 328.036 714.387 330.936 718.147 330.936H781.807C785.567 330.936 788.628 328.036 788.628 324.473V232.21C828.066 217.585 854.3 181.044 854.3 140.112ZM725.011 182.66C726.279 181.749 728.159 180.672 730.214 180.672C736.642 180.672 737.91 182.329 742.675 188.46C743.287 189.247 743.9 190.035 744.556 190.863C745.823 192.479 747.878 193.432 750.021 193.432C752.163 193.432 754.175 192.479 755.486 190.863C756.142 190.035 756.798 189.206 757.366 188.46C762.132 182.329 763.4 180.672 769.827 180.672C771.882 180.672 773.806 181.749 775.03 182.66V284.908H725.055V182.66H725.011ZM725.011 158.134L731.876 148.895H768.122L774.987 158.134V168.367C773.369 167.953 771.62 167.704 769.784 167.704C759.509 167.704 754.262 171.474 750.021 176.239C745.78 171.433 740.489 167.704 730.258 167.704C728.378 167.704 726.629 167.953 725.055 168.367V158.134H725.011ZM741.364 135.969L749.977 124.162L758.591 135.969H741.32H741.364ZM725.011 318.01V297.834H774.987V318.01H725.011ZM788.672 218.124V156.063C788.672 154.737 788.235 153.411 787.448 152.334L777.304 138.662L755.661 109.123C754.393 107.383 752.294 106.347 750.064 106.347C747.835 106.347 745.736 107.383 744.468 109.123L722.825 138.662L712.682 152.334C711.851 153.411 711.457 154.737 711.457 156.063V218.124C680.021 204.286 659.427 173.96 659.427 140.071C659.427 92.717 700.089 54.1463 750.108 54.1463C800.127 54.1463 840.789 92.6756 840.789 140.071C840.789 173.919 820.196 204.286 788.759 218.124H788.672Z" fill="white"/>
<path d="M724.532 159.544L731.527 150.098H768.473L775.469 159.544V169.984C773.851 169.569 772.058 169.321 770.134 169.321C759.685 169.321 754.307 173.132 749.935 178.021C745.606 173.132 740.228 169.321 729.735 169.321C727.811 169.321 726.062 169.569 724.4 169.984V159.544H724.532Z" fill="#FEBC12"/>
<path d="M741.23 136.921L750.019 124.906L758.807 136.921H741.23Z" fill="#FEBC12"/>
<path d="M750.024 25.0648C753.784 25.0648 756.845 22.1647 756.845 18.6018V6.46297C756.845 2.90005 753.784 0 750.024 0C746.264 0 743.203 2.90005 743.203 6.46297V18.6018C743.203 22.1647 746.264 25.0648 750.024 25.0648Z" fill="#13133D"/>
<path d="M891.073 133.652H878.262C874.502 133.652 871.441 136.552 871.441 140.115C871.441 143.678 874.502 146.578 878.262 146.578H891.073C894.833 146.578 897.894 143.678 897.894 140.115C897.894 136.552 894.833 133.652 891.073 133.652Z" fill="#13133D"/>
<path d="M621.786 133.652H608.975C605.215 133.652 602.154 136.552 602.154 140.115C602.154 143.678 605.215 146.578 608.975 146.578H621.786C625.546 146.578 628.607 143.678 628.607 140.115C628.607 136.552 625.546 133.652 621.786 133.652Z" fill="#13133D"/>
<path d="M844.946 41.0165L835.895 49.5924C833.228 52.1196 833.228 56.2211 835.895 58.7483C837.207 59.9911 838.955 60.654 840.704 60.654C842.453 60.654 844.202 60.0326 845.514 58.7483L854.564 50.1724C857.232 47.6452 857.232 43.5437 854.564 41.0165C851.897 38.4893 847.569 38.4893 844.902 41.0165H844.946Z" fill="#13133D"/>
<path d="M654.488 221.477L645.438 230.053C642.771 232.58 642.771 236.682 645.438 239.209C646.75 240.452 648.498 241.115 650.247 241.115C651.996 241.115 653.745 240.494 655.057 239.209L664.107 230.633C666.775 228.106 666.775 224.005 664.107 221.477C661.44 218.95 657.112 218.95 654.445 221.477H654.488Z" fill="#13133D"/>
<path d="M845.515 221.477C842.848 218.95 838.519 218.95 835.852 221.477C833.185 224.005 833.185 228.106 835.852 230.633L844.903 239.209C846.214 240.452 847.963 241.115 849.712 241.115C851.461 241.115 853.21 240.494 854.522 239.209C857.189 236.682 857.189 232.58 854.522 230.053L845.471 221.477H845.515Z" fill="#13133D"/>
<path d="M654.489 58.7483C655.801 59.9911 657.55 60.654 659.299 60.654C661.048 60.654 662.797 60.0326 664.108 58.7483C666.775 56.2211 666.775 52.1196 664.108 49.5924L655.058 41.0165C652.391 38.4893 648.062 38.4893 645.395 41.0165C642.728 43.5437 642.728 47.6452 645.395 50.1724L654.489 58.7483Z" fill="#13133D"/>
<path d="M531.8 1301.89H557.535V1328.3H530.134C523.272 1360.96 495.821 1377.29 447.782 1377.29C395.908 1377.29 370.021 1356.85 370.021 1315.93C370.021 1303.93 372.191 1291.71 376.581 1279.3L423.308 1273.15C417.859 1286.73 415.083 1299.93 415.083 1312.68C415.083 1338.14 427.143 1350.85 451.264 1350.85C463.324 1350.85 472.155 1348.1 477.705 1342.63C483.811 1336.59 486.889 1326.56 486.889 1312.46V1228.12H531.85V1301.86L531.8 1301.89ZM430.121 1253.96C425.781 1250.71 423.561 1246.75 423.561 1242.11C423.561 1237.47 425.73 1233.63 430.121 1230.34C434.46 1227.1 439.708 1225.44 445.864 1225.44C452.021 1225.44 457.47 1227.03 461.709 1230.23C466.15 1233.44 468.37 1237.36 468.37 1242.07C468.37 1246.79 466.15 1250.67 461.709 1253.92C457.37 1257.16 452.071 1258.82 445.864 1258.82C439.658 1258.82 434.511 1257.2 430.121 1253.92V1253.96Z" fill="#13133D"/>
<path d="M553.26 1301.89H623.804V1328.29H553.26V1301.89Z" fill="#13133D"/>
<path d="M621.168 1301.89H691.712V1328.29H621.168V1301.89Z" fill="#13133D"/>
<path d="M689.043 1301.89H759.588V1328.29H689.043V1301.89Z" fill="#13133D"/>
<path d="M756.955 1301.89H808.324V1228.15H853.285V1328.29H757.005V1301.89H756.955ZM796.315 1371.89C792.227 1375.06 787.181 1376.68 781.126 1376.68C775.07 1376.68 770.125 1375.1 765.937 1371.89C761.749 1368.69 759.68 1364.8 759.68 1360.24C759.68 1355.67 761.749 1351.9 765.937 1348.7C770.125 1345.49 775.171 1343.91 781.126 1343.91C787.08 1343.91 792.126 1345.49 796.315 1348.7C800.503 1351.9 802.572 1355.75 802.572 1360.24C802.572 1364.73 800.503 1368.69 796.315 1371.89ZM847.129 1371.89C842.941 1375.06 837.895 1376.68 831.94 1376.68C825.986 1376.68 820.738 1375.1 816.65 1371.89C812.563 1368.76 810.545 1364.88 810.545 1360.24C810.545 1355.6 812.563 1351.9 816.65 1348.7C820.738 1345.49 825.834 1343.91 831.94 1343.91C838.046 1343.91 842.941 1345.49 847.129 1348.7C851.216 1351.9 853.235 1355.75 853.235 1360.24C853.235 1364.73 851.216 1368.69 847.129 1371.89Z" fill="#13133D"/>
<path d="M874.786 1380.72L877.965 1354.09C883.718 1355.18 890.177 1355.75 897.292 1355.75C906.022 1355.75 912.43 1354.01 916.467 1350.54C920.908 1346.58 923.128 1339.87 923.128 1330.37V1228.11H968.19V1329.08C968.19 1364.31 943.767 1381.92 894.87 1381.92C887.704 1381.92 880.993 1381.51 874.686 1380.68L874.786 1380.72Z" fill="#13133D"/>
<path d="M994.177 1379.18L996.7 1352.13C1010.53 1354.28 1025.06 1355.34 1040.25 1355.34C1070.88 1355.34 1086.17 1346.89 1086.17 1329.96V1328.3H1067.95C1016.63 1328.3 990.998 1311.96 990.998 1279.3C990.998 1263.99 997.104 1251.43 1009.37 1241.66C1023.19 1230.72 1042.92 1225.21 1068.51 1225.21C1092.27 1225.21 1112.76 1227.67 1130.02 1232.61V1326.41C1130.02 1343.31 1122.6 1356.58 1107.76 1366.13C1091.72 1376.54 1068 1381.74 1036.67 1381.74C1022.59 1381.74 1008.41 1380.87 994.228 1379.14L994.177 1379.18ZM1086.17 1255.01C1080.31 1252.79 1073 1251.69 1064.17 1251.69C1055.34 1251.69 1048.37 1254.03 1043.17 1258.78C1038.28 1263.27 1035.81 1269.08 1035.81 1276.13C1035.81 1293.33 1048.07 1301.93 1072.54 1301.93H1086.17V1255.01Z" fill="#13133D"/>
<path d="M1117.2 1021.85L1086.77 1039.25L1059.88 1017.16L1067.93 1049.98L1037.5 1067.38L1072.91 1070.28L1080.96 1103.09L1094.82 1072.06L1130.23 1074.96L1103.39 1052.88L1117.2 1021.85Z" fill="#FEBC12"/>
<path d="M1015.99 1093.56L991.02 1107.81L969.027 1089.75L975.629 1116.6L950.707 1130.85L979.695 1133.21L986.297 1160.06L997.622 1134.66L1026.61 1137.02L1004.62 1118.96L1015.99 1093.56Z" fill="#FEBC12"/>
<path d="M911.925 1139.42L892.512 1150.49L875.417 1136.44L880.532 1157.32L861.119 1168.42L883.724 1170.25L888.84 1191.17L897.672 1171.41L920.233 1173.23L903.093 1159.19L911.925 1139.42Z" fill="#FEBC12"/>
<path d="M810.925 1170.66L797.022 1178.61L784.779 1168.55L788.452 1183.5L774.592 1191.42L790.726 1192.74L794.398 1207.7L800.694 1193.57L816.828 1194.85L804.586 1184.83L810.925 1170.66Z" fill="#FEBC12"/>
<path d="M440.111 1017.16L413.265 1039.25L382.79 1021.85L396.651 1052.88L369.805 1074.96L405.22 1072.06L419.08 1103.09L427.082 1070.28L462.541 1067.38L432.066 1049.98L440.111 1017.16Z" fill="#FEBC12"/>
<path d="M530.97 1089.75L508.977 1107.81L484.055 1093.56L495.379 1118.96L473.387 1137.02L502.419 1134.66L513.743 1160.06L520.301 1133.21L549.333 1130.85L524.411 1116.6L530.97 1089.75Z" fill="#FEBC12"/>
<path d="M624.623 1136.44L607.483 1150.49L588.07 1139.42L596.902 1159.19L579.807 1173.23L602.368 1171.41L611.2 1191.17L616.315 1170.25L638.876 1168.42L619.463 1157.32L624.623 1136.44Z" fill="#FEBC12"/>
<path d="M715.215 1168.55L702.972 1178.61L689.112 1170.66L695.408 1184.83L683.166 1194.85L699.3 1193.57L705.639 1207.7L709.312 1192.74L725.446 1191.42L711.542 1183.5L715.215 1168.55Z" fill="#FEBC12"/>
<path d="M964.44 1006.18H537.268C641.197 1075.28 739.617 1096.16 750.154 1098.24C750.154 1098.24 854.215 1079.22 964.44 1006.18Z" fill="#FEBC12"/>
<path d="M320.312 223.001V223.415C356.69 226.232 413.092 237.874 475.179 276.901C528.04 310.127 584.267 362.742 634.199 444.897C681.245 522.37 721.732 624.742 747.572 758.061H752.469C778.266 624.742 818.753 522.411 865.843 444.897C915.774 362.701 972.002 310.127 1024.86 276.901C1086.99 237.874 1143.35 226.274 1179.73 223.415V223.001C1179.73 223.001 1097.75 218.402 1001.91 239.821C954.25 250.469 903.444 267.538 858.278 294.591C854.693 296.745 851.152 298.941 847.654 301.22C807.385 327.362 772.669 361.831 750.064 407.237C727.46 361.872 692.744 327.362 652.475 301.22C648.977 298.941 645.436 296.745 641.85 294.591C596.685 267.496 545.922 250.469 498.221 239.821C402.38 218.402 320.356 223.001 320.356 223.001H320.312Z" fill="#FEBC12"/>
<path d="M998.19 1014.01C878.084 1099.72 760.076 1121.97 755.091 1122.88L749.932 1123.84L744.773 1122.84C734.848 1120.94 612.555 1095.71 492.667 1006.22H451.174C583.742 1115.43 728.42 1145.3 739.439 1147.41L749.714 1149.4L760.076 1147.53C765.279 1146.58 889.146 1123.22 1014.06 1034.06C1025.95 1025.61 1038.07 1016.29 1050.22 1006.22H1008.77C1005.19 1008.87 1001.64 1011.52 998.103 1014.05L998.19 1014.01Z" fill="#13133D"/>
<path d="M868.595 702.841C909.651 684.944 955.954 673.758 1002.43 666.425C1076.28 654.783 1147.55 656.357 1187.86 665.638L1193.85 226.113L1159.13 625.203C1124.16 620.272 1060.71 620.604 981.269 639.164C937.065 649.48 892.424 664.519 852.943 687.264C850.581 688.631 848.264 690.04 845.903 691.365C812.455 710.091 785.872 733.167 764.885 757.984H767.989C789.85 739.133 822.817 721.609 861.119 706.114C863.655 705.078 866.147 703.918 868.683 702.8L868.595 702.841Z" fill="#13133D"/>
<path d="M1221.79 327.569L1208.59 706.73C1163.07 693.224 1095.91 689.04 1027.88 694.675C979.043 698.735 931.123 706.358 888.668 719.574C885.957 720.402 883.29 721.314 880.579 722.101C842.147 733.08 809.049 745.55 785.395 758.02H811.628C834.626 750.521 863.046 742.857 895.576 736.684C898.418 736.145 901.304 735.524 904.189 734.944C948 726.161 997.494 721.645 1048.65 721.355C1110.91 720.982 1185.72 730.925 1236.31 748.491L1222.05 327.527H1221.84L1221.79 327.569Z" fill="#13133D"/>
<path d="M654.181 691.396C651.82 690.071 649.502 688.662 647.141 687.295C607.66 664.509 563.019 649.511 518.815 639.195C439.327 620.635 375.929 620.304 340.95 625.234L306.234 226.145L312.224 665.669C352.537 656.389 423.805 654.814 497.653 666.456C544.13 673.789 590.433 684.975 631.489 702.873C634.025 703.991 636.517 705.151 639.053 706.187C677.354 721.681 710.321 739.206 732.182 758.056H735.287C714.3 733.199 687.716 710.164 654.268 691.438L654.181 691.396Z" fill="#13133D"/>
<path d="M451.395 721.357C502.551 721.647 552.045 726.162 595.855 734.945C598.741 735.525 601.583 736.147 604.469 736.686C636.955 742.858 665.374 750.523 688.416 758.022H714.65C691.04 745.551 657.942 733.081 619.465 722.102C616.755 721.315 614.088 720.445 611.377 719.575C568.922 706.318 521.002 698.695 472.163 694.676C404.13 689.042 336.972 693.226 291.457 706.732L278.252 327.57H278.034L263.736 748.534C314.324 730.968 389.133 721.025 451.395 721.398V721.357Z" fill="#13133D"/>
<rect x="264" y="1404.48" width="972" height="95.5174" fill="#FEBC12"/>
<path d="M761.889 1465.81C750.827 1465.81 745.318 1461.67 745.318 1453.38C745.318 1451.31 745.668 1449.2 746.324 1447.17L753.713 1446.05C752.795 1448.04 752.314 1450.27 752.314 1452.72C752.314 1455.54 753.057 1457.52 754.588 1458.77C756.162 1460.05 758.829 1460.67 762.589 1460.67H765.037V1446.54C767.836 1446.01 770.984 1445.76 774.394 1445.76C778.154 1445.76 780.865 1446.59 782.526 1448.24C783.969 1449.69 784.669 1451.97 784.669 1455V1460.67H787.904V1465.81H778.023V1455.62C778.023 1453.84 777.761 1452.59 777.192 1451.93C776.624 1451.23 775.575 1450.9 774.001 1450.9C773.214 1450.9 772.47 1450.98 771.683 1451.1V1465.81H761.889ZM759.047 1474.26C758.391 1474.88 757.604 1475.17 756.686 1475.17C755.768 1475.17 754.981 1474.84 754.369 1474.26C753.757 1473.64 753.451 1472.89 753.451 1471.98C753.451 1471.07 753.757 1470.37 754.369 1469.75C755.025 1469.12 755.768 1468.83 756.686 1468.83C757.604 1468.83 758.391 1469.17 759.047 1469.75C759.659 1470.37 759.965 1471.11 759.965 1471.98C759.965 1472.85 759.659 1473.64 759.047 1474.26ZM766.786 1474.26C766.13 1474.88 765.387 1475.17 764.469 1475.17C763.551 1475.17 762.764 1474.84 762.108 1474.26C761.496 1473.64 761.19 1472.89 761.19 1471.98C761.19 1471.07 761.496 1470.37 762.108 1469.75C762.764 1469.12 763.551 1468.83 764.469 1468.83C765.387 1468.83 766.174 1469.17 766.786 1469.75C767.398 1470.33 767.748 1471.11 767.748 1471.98C767.748 1472.85 767.442 1473.64 766.786 1474.26Z" fill="#13133D"/>
<path d="M787.291 1465.81V1460.67H789.171C790.177 1460.67 790.964 1460.8 791.532 1461C790.264 1459.97 789.608 1458.23 789.608 1455.78C789.608 1453.01 790.57 1450.69 792.494 1448.82C794.636 1446.79 797.522 1445.76 801.239 1445.76C804.693 1445.76 807.316 1446.67 809.065 1448.45C810.683 1450.11 811.47 1452.43 811.47 1455.41V1465.81H787.291ZM804.736 1456.12C804.736 1452.64 803.425 1450.9 800.801 1450.9C799.446 1450.9 798.353 1451.35 797.566 1452.26C796.823 1453.13 796.429 1454.25 796.429 1455.66C796.429 1459.02 798.309 1460.67 802.069 1460.67H804.736V1456.12Z" fill="#13133D"/>
<path d="M820.389 1465.81H815.842V1460.67H828.128C827.778 1455.29 824.499 1451.93 818.29 1450.65L819.908 1445.22C829.921 1447.41 834.905 1453.21 834.905 1462.62V1465.81H830.27C830.489 1466.39 830.576 1467.05 830.576 1467.8V1472.94H825.636C821.744 1472.94 819.821 1471.36 819.821 1468.25C819.821 1467.34 819.996 1466.51 820.389 1465.81ZM827.953 1468.42C827.953 1466.68 827.122 1465.81 825.461 1465.81C824.586 1465.81 823.931 1466.02 823.45 1466.47C823.012 1466.89 822.75 1467.42 822.75 1468.05C822.75 1469.66 823.974 1470.45 826.379 1470.45H827.909V1468.46L827.953 1468.42Z" fill="#13133D"/>
<path d="M840.023 1436.6H846.932V1460.67H851.042V1465.81H840.023V1436.6Z" fill="#13133D"/>
<path d="M850.383 1460.67H862.625C862.319 1455.16 858.952 1451.8 852.481 1450.56V1445.79L870.233 1435.23V1441.73L860.352 1447.29C866.429 1449.94 869.446 1455.08 869.446 1462.62V1465.81H850.383V1460.67Z" fill="#13133D"/>
<path d="M876.529 1436.6H883.438V1465.81H876.529V1436.6Z" fill="#13133D"/>
<path d="M913.784 1465.81C902.722 1465.81 897.213 1461.67 897.213 1453.38C897.213 1451.31 897.563 1449.2 898.218 1447.17L905.608 1446.05C904.689 1448.04 904.209 1450.27 904.209 1452.72C904.209 1455.54 904.952 1457.52 906.482 1458.77C908.056 1460.05 910.723 1460.67 914.483 1460.67H916.932V1446.54C919.73 1446.01 922.878 1445.76 926.289 1445.76C930.049 1445.76 932.76 1446.59 934.421 1448.24C935.864 1449.69 936.563 1451.97 936.563 1455V1460.67H939.799V1465.81H929.918V1455.62C929.918 1453.84 929.655 1452.59 929.087 1451.93C928.518 1451.23 927.469 1450.9 925.895 1450.9C925.108 1450.9 924.365 1450.98 923.578 1451.1V1465.81H913.784ZM914.877 1468.88C915.533 1469.5 915.839 1470.2 915.839 1471.07C915.839 1471.94 915.533 1472.69 914.877 1473.31C914.221 1473.89 913.434 1474.18 912.472 1474.18C911.51 1474.18 910.767 1473.89 910.111 1473.31C909.455 1472.73 909.149 1471.98 909.149 1471.07C909.149 1470.16 909.455 1469.46 910.111 1468.88C910.767 1468.3 911.554 1468.01 912.472 1468.01C913.39 1468.01 914.221 1468.3 914.877 1468.88ZM914.877 1476.25C915.533 1476.83 915.839 1477.58 915.839 1478.45C915.839 1479.32 915.533 1480.06 914.877 1480.64C914.221 1481.22 913.434 1481.55 912.472 1481.55C911.51 1481.55 910.767 1481.26 910.111 1480.64C909.455 1480.02 909.149 1479.32 909.149 1478.45C909.149 1477.58 909.455 1476.83 910.111 1476.25C910.767 1475.67 911.554 1475.34 912.472 1475.34C913.39 1475.34 914.221 1475.63 914.877 1476.25Z" fill="#13133D"/>
<path d="M939.184 1460.67H945.086V1446.33H952.038V1465.81H939.184V1460.67ZM946.092 1442.56C945.436 1441.94 945.13 1441.16 945.13 1440.24C945.13 1439.33 945.436 1438.59 946.092 1437.97C946.748 1437.34 947.578 1437.05 948.497 1437.05C949.415 1437.05 950.289 1437.39 950.945 1437.97C951.601 1438.55 951.951 1439.33 951.951 1440.24C951.951 1441.16 951.601 1441.94 950.945 1442.56C950.289 1443.19 949.458 1443.52 948.497 1443.52C947.535 1443.52 946.748 1443.19 946.092 1442.56Z" fill="#13133D"/>
<path d="M955.143 1475.67L955.537 1470.41C957.635 1470.82 959.865 1471.03 962.226 1471.03C966.904 1471.03 969.266 1469.37 969.266 1466.1V1465.77H966.467C958.597 1465.77 954.662 1462.58 954.662 1456.24C954.662 1453.26 955.58 1450.81 957.46 1448.91C959.559 1446.8 962.62 1445.72 966.555 1445.72C970.184 1445.72 973.332 1446.22 975.999 1447.17V1465.4C975.999 1468.67 974.862 1471.28 972.589 1473.14C970.14 1475.18 966.467 1476.17 961.658 1476.17C959.515 1476.17 957.329 1476 955.143 1475.67ZM969.222 1451.52C968.304 1451.1 967.211 1450.86 965.855 1450.86C964.5 1450.86 963.407 1451.31 962.62 1452.22C961.876 1453.09 961.483 1454.21 961.483 1455.62C961.483 1458.98 963.363 1460.63 967.123 1460.63H969.222V1451.52Z" fill="#13133D"/>
<path d="M980.503 1476.24C979.541 1476.24 978.623 1476.16 977.748 1476L978.229 1470.82C979.103 1471.02 980.109 1471.15 981.202 1471.15C982.558 1471.15 983.519 1470.82 984.132 1470.15C984.831 1469.37 985.137 1468.08 985.137 1466.22V1446.33H992.045V1465.97C992.045 1469.49 991.084 1472.1 989.116 1473.8C989.335 1473.97 989.553 1474.13 989.728 1474.34C990.515 1475.17 990.909 1476.29 990.909 1477.74V1482.87H985.968C982.077 1482.87 980.153 1481.3 980.153 1478.19C980.153 1477.49 980.24 1476.87 980.459 1476.29L980.503 1476.24ZM985.137 1475.75C985.137 1475.75 984.919 1475.79 984.787 1475.83C984.394 1475.95 984.088 1476.12 983.826 1476.37C983.388 1476.78 983.126 1477.32 983.126 1477.94C983.126 1479.56 984.35 1480.35 986.755 1480.35H988.285V1478.36C988.285 1476.62 987.455 1475.75 985.793 1475.75C985.531 1475.75 985.312 1475.75 985.094 1475.79L985.137 1475.75Z" fill="#13133D"/>
<path d="M997.729 1475.67L998.122 1470.41C1000.22 1470.82 1002.45 1471.03 1004.81 1471.03C1009.49 1471.03 1011.85 1469.37 1011.85 1466.1V1465.77H1009.05C1001.18 1465.77 997.248 1462.58 997.248 1456.24C997.248 1453.26 998.166 1450.81 1000.05 1448.91C1002.15 1446.8 1005.21 1445.72 1009.14 1445.72C1012.77 1445.72 1015.92 1446.22 1018.58 1447.17V1460.63H1022.52V1465.77H1018.58C1018.5 1468.96 1017.32 1471.45 1015.04 1473.23C1012.55 1475.17 1008.97 1476.17 1004.24 1476.17C1002.1 1476.17 999.915 1476 997.729 1475.67ZM1011.81 1451.52C1010.89 1451.1 1009.8 1450.86 1008.44 1450.86C1007.09 1450.86 1005.99 1451.31 1005.21 1452.22C1004.46 1453.09 1004.07 1454.21 1004.07 1455.62C1004.07 1458.98 1005.95 1460.63 1009.71 1460.63H1011.81V1451.52Z" fill="#13133D"/>
<path d="M1021.78 1460.67H1026.76V1436.6H1033.71V1465.81H1021.78V1460.67Z" fill="#13133D"/>
<path d="M1064.01 1465.81C1052.95 1465.81 1047.44 1461.67 1047.44 1453.38C1047.44 1451.31 1047.79 1449.2 1048.45 1447.17L1055.84 1446.05C1054.92 1448.04 1054.44 1450.27 1054.44 1452.72C1054.44 1455.53 1055.18 1457.52 1056.71 1458.77C1058.28 1460.05 1060.95 1460.67 1064.71 1460.67H1069.65V1446.34H1076.6V1465.81H1064.01ZM1057.02 1442.69C1056.36 1442.07 1056.05 1441.32 1056.05 1440.41C1056.05 1439.5 1056.36 1438.8 1057.02 1438.13C1057.67 1437.51 1058.42 1437.22 1059.33 1437.22C1060.25 1437.22 1061.04 1437.55 1061.65 1438.13C1062.31 1438.76 1062.61 1439.5 1062.61 1440.41C1062.61 1441.32 1062.31 1442.07 1061.65 1442.69C1061 1443.31 1060.25 1443.64 1059.33 1443.64C1058.42 1443.64 1057.63 1443.31 1057.02 1442.69ZM1064.76 1442.69C1064.14 1442.07 1063.84 1441.32 1063.84 1440.41C1063.84 1439.5 1064.14 1438.76 1064.76 1438.13C1065.37 1437.51 1066.15 1437.22 1067.12 1437.22C1068.08 1437.22 1068.82 1437.55 1069.43 1438.13C1070.05 1438.76 1070.35 1439.5 1070.35 1440.41C1070.35 1441.32 1070.05 1442.07 1069.43 1442.69C1068.78 1443.31 1068.03 1443.64 1067.12 1443.64C1066.2 1443.64 1065.41 1443.31 1064.76 1442.69Z" fill="#13133D"/>
<path d="M1076.25 1476L1076.74 1470.82C1077.61 1471.02 1078.62 1471.15 1079.71 1471.15C1081.06 1471.15 1082.03 1470.82 1082.64 1470.15C1083.34 1469.37 1083.64 1468.08 1083.64 1466.22V1446.33H1090.55V1465.97C1090.55 1472.81 1086.79 1476.24 1079.32 1476.24C1078.22 1476.24 1077.17 1476.16 1076.21 1476H1076.25Z" fill="#13133D"/>
<path d="M1096.85 1436.6H1103.76V1460.67H1107.87V1465.81H1096.85V1436.6Z" fill="#13133D"/>
<path d="M1107.26 1465.8V1460.67H1109.97C1110.89 1460.67 1111.59 1460.75 1112.2 1460.96C1111.76 1460.34 1111.5 1459.67 1111.5 1458.89C1111.5 1456.86 1112.24 1455.2 1113.73 1453.91C1115.26 1452.55 1117.4 1451.88 1120.07 1451.88C1122.95 1451.88 1125.1 1452.71 1126.5 1454.33C1127.72 1455.74 1128.33 1457.68 1128.33 1460.13V1460.67H1132V1460.38C1132 1456.57 1131.09 1453.71 1129.29 1451.84C1127.37 1449.9 1124.35 1448.9 1120.2 1448.9C1117.18 1448.9 1114.03 1449.4 1110.8 1450.43L1110.14 1445.79C1113.77 1444.68 1117.4 1444.14 1120.99 1444.14C1132.62 1444.14 1138.48 1449.65 1138.61 1460.63H1141.54V1465.76H1107.3L1107.26 1465.8ZM1122.78 1459.96C1122.78 1457.23 1121.69 1455.86 1119.54 1455.86C1117.8 1455.86 1116.92 1456.65 1116.92 1458.18C1116.92 1459.96 1118.14 1460.87 1120.55 1460.87H1122.78V1459.96Z" fill="#13133D"/>
<path d="M1140.75 1465.81V1460.67H1142.63C1143.63 1460.67 1144.42 1460.8 1144.99 1461C1143.72 1459.97 1143.07 1458.23 1143.07 1455.78C1143.07 1453.01 1144.03 1450.69 1145.95 1448.82C1148.09 1446.79 1150.98 1445.76 1154.7 1445.76C1158.15 1445.76 1160.77 1446.67 1162.52 1448.45C1164.14 1450.11 1164.93 1452.43 1164.93 1455.41V1465.81H1140.75ZM1158.19 1456.12C1158.19 1452.64 1156.88 1450.9 1154.26 1450.9C1152.9 1450.9 1151.81 1451.35 1151.02 1452.26C1150.28 1453.13 1149.89 1454.25 1149.89 1455.66C1149.89 1459.02 1151.77 1460.67 1155.53 1460.67H1158.19V1456.12Z" fill="#13133D"/>
<path d="M1177.87 1460.67H1190.15C1189.8 1455.29 1186.52 1451.93 1180.32 1450.65L1181.93 1445.22C1191.95 1447.41 1196.93 1453.21 1196.93 1462.62V1465.81H1177.87V1460.67Z" fill="#13133D"/>
<path d="M326.364 1469.05C315.302 1469.05 309.793 1464.91 309.793 1456.63C309.793 1454.55 310.143 1452.44 310.799 1450.41L318.188 1449.29C317.27 1451.28 316.789 1453.52 316.789 1455.96C316.789 1458.78 317.532 1460.77 319.062 1462.01C320.636 1463.3 323.303 1463.92 327.064 1463.92H332.004V1449.58H338.956V1469.05H326.364ZM319.325 1445.94C318.669 1445.32 318.363 1444.57 318.363 1443.66C318.363 1442.75 318.669 1442.04 319.325 1441.38C319.98 1440.76 320.724 1440.47 321.642 1440.47C322.56 1440.47 323.347 1440.8 323.959 1441.38C324.615 1442 324.921 1442.75 324.921 1443.66C324.921 1444.57 324.615 1445.32 323.959 1445.94C323.303 1446.56 322.56 1446.89 321.642 1446.89C320.724 1446.89 319.937 1446.56 319.325 1445.94ZM327.107 1445.94C326.495 1445.32 326.189 1444.57 326.189 1443.66C326.189 1442.75 326.495 1442 327.107 1441.38C327.719 1440.76 328.506 1440.47 329.468 1440.47C330.43 1440.47 331.173 1440.8 331.786 1441.38C332.398 1442 332.704 1442.75 332.704 1443.66C332.704 1444.57 332.398 1445.32 331.786 1445.94C331.13 1446.56 330.386 1446.89 329.468 1446.89C328.55 1446.89 327.763 1446.56 327.107 1445.94Z" fill="#13133D"/>
<path d="M338.606 1479.25L339.087 1474.07C339.962 1474.28 340.967 1474.4 342.06 1474.4C343.416 1474.4 344.378 1474.07 344.99 1473.41C345.689 1472.62 345.995 1471.34 345.995 1469.47V1449.59H352.904V1469.22C352.904 1476.06 349.143 1479.5 341.667 1479.5C340.574 1479.5 339.524 1479.42 338.562 1479.25H338.606Z" fill="#13133D"/>
<path d="M359.201 1439.86H366.109V1463.93H370.219V1469.06H359.201V1439.86Z" fill="#13133D"/>
<path d="M369.562 1469.06V1463.92H372.273C373.191 1463.92 373.891 1464 374.503 1464.21C374.066 1463.59 373.804 1462.93 373.804 1462.14C373.804 1460.11 374.547 1458.45 376.033 1457.17C377.564 1455.8 379.706 1455.14 382.373 1455.14C385.259 1455.14 387.401 1455.97 388.801 1457.58C390.025 1458.99 390.637 1460.94 390.637 1463.38V1463.92H394.31V1463.63C394.31 1459.82 393.391 1456.96 391.599 1455.1C389.675 1453.15 386.658 1452.15 382.504 1452.15C379.488 1452.15 376.34 1452.65 373.104 1453.69L372.448 1449.05C376.077 1447.93 379.706 1447.39 383.291 1447.39C394.922 1447.39 400.781 1452.9 400.912 1463.88H403.841V1469.02H369.606L369.562 1469.06ZM385.128 1463.22C385.128 1460.48 384.035 1459.12 381.892 1459.12C380.143 1459.12 379.269 1459.9 379.269 1461.44C379.269 1463.22 380.493 1464.13 382.898 1464.13H385.128V1463.22Z" fill="#13133D"/>
<path d="M403.1 1469.06V1463.92H404.98C405.985 1463.92 406.772 1464.04 407.341 1464.25C406.073 1463.21 405.417 1461.47 405.417 1459.03C405.417 1456.25 406.379 1453.93 408.303 1452.07C410.445 1450.04 413.331 1449 417.047 1449C420.501 1449 423.125 1449.92 424.874 1451.7C426.491 1453.35 427.278 1455.67 427.278 1458.66V1469.06H403.1ZM420.545 1459.36C420.545 1455.88 419.233 1454.14 416.61 1454.14C415.255 1454.14 414.162 1454.6 413.375 1455.51C412.631 1456.38 412.238 1457.5 412.238 1458.91C412.238 1462.26 414.118 1463.92 417.878 1463.92H420.545V1459.36Z" fill="#13133D"/>
<path d="M456.745 1469.06C445.683 1469.06 440.174 1464.91 440.174 1456.63C440.174 1454.56 440.524 1452.44 441.18 1450.41L448.569 1449.29C447.65 1451.28 447.17 1453.52 447.17 1455.96C447.17 1458.78 447.913 1460.77 449.443 1462.01C451.017 1463.3 453.684 1463.92 457.444 1463.92H459.893V1449.79C462.691 1449.25 465.839 1449 469.249 1449C473.01 1449 475.721 1449.83 477.382 1451.49C478.825 1452.94 479.524 1455.22 479.524 1458.24V1464.08H472.879V1458.86C472.879 1457.08 472.616 1455.84 472.048 1455.18C471.479 1454.47 470.43 1454.14 468.856 1454.14C468.069 1454.14 467.326 1454.22 466.539 1454.35V1469.06H456.745Z" fill="#13133D"/>
<path d="M485.516 1439.86H492.424V1463.93H496.534V1469.06H485.516V1439.86Z" fill="#13133D"/>
<path d="M495.879 1463.92H497.234C498.109 1463.92 498.896 1464 499.639 1464.12C498.677 1462.96 498.196 1461.43 498.196 1459.44C498.196 1456.34 499.289 1453.85 501.432 1451.9C503.574 1449.96 506.329 1449 509.652 1449C512.975 1449 515.554 1449.83 517.347 1451.45C519.183 1453.1 520.101 1455.47 520.101 1458.61C520.101 1461.14 519.446 1462.96 518.134 1464.12C519.183 1464 520.189 1463.92 521.151 1463.92H523.075V1469.05H495.879V1463.92ZM503.006 1445.94C502.394 1445.32 502.088 1444.57 502.088 1443.66C502.088 1442.75 502.394 1442.04 503.006 1441.38C503.662 1440.76 504.405 1440.47 505.323 1440.47C506.241 1440.47 507.028 1440.8 507.64 1441.38C508.296 1442 508.602 1442.75 508.602 1443.66C508.602 1444.57 508.296 1445.32 507.64 1445.94C507.028 1446.56 506.241 1446.89 505.323 1446.89C504.405 1446.89 503.618 1446.56 503.006 1445.94ZM512.056 1462.63C512.8 1461.76 513.193 1460.56 513.193 1458.99C513.193 1455.76 511.882 1454.1 509.214 1454.1C508.078 1454.1 507.116 1454.47 506.372 1455.22C505.498 1456.09 505.104 1457.29 505.104 1458.82C505.104 1462.18 506.416 1463.88 509.083 1463.88C510.351 1463.88 511.313 1463.46 512.056 1462.63ZM510.745 1445.94C510.133 1445.32 509.827 1444.57 509.827 1443.66C509.827 1442.75 510.133 1442 510.745 1441.38C511.4 1440.76 512.188 1440.47 513.106 1440.47C514.024 1440.47 514.811 1440.8 515.423 1441.38C516.079 1442 516.385 1442.75 516.385 1443.66C516.385 1444.57 516.079 1445.32 515.423 1445.94C514.767 1446.56 514.024 1446.89 513.106 1446.89C512.188 1446.89 511.4 1446.56 510.745 1445.94Z" fill="#13133D"/>
<path d="M522.418 1463.92H528.321V1449.58H535.272V1469.05H522.418V1463.92ZM524.735 1445.94C524.079 1445.32 523.773 1444.57 523.773 1443.66C523.773 1442.75 524.079 1442.04 524.735 1441.38C525.391 1440.76 526.134 1440.47 527.053 1440.47C527.971 1440.47 528.758 1440.8 529.37 1441.38C530.026 1442 530.332 1442.75 530.332 1443.66C530.332 1444.57 530.026 1445.32 529.37 1445.94C528.714 1446.56 527.971 1446.89 527.053 1446.89C526.134 1446.89 525.347 1446.56 524.735 1445.94ZM532.474 1445.94C531.862 1445.32 531.556 1444.57 531.556 1443.66C531.556 1442.75 531.862 1442 532.474 1441.38C533.086 1440.76 533.873 1440.47 534.835 1440.47C535.797 1440.47 536.54 1440.8 537.153 1441.38C537.765 1442 538.071 1442.75 538.071 1443.66C538.071 1444.57 537.765 1445.32 537.153 1445.94C536.497 1446.56 535.753 1446.89 534.835 1446.89C533.917 1446.89 533.13 1446.56 532.474 1445.94Z" fill="#13133D"/>
<path d="M534.923 1479.25L535.404 1474.07C536.278 1474.28 537.284 1474.4 538.377 1474.4C539.732 1474.4 540.694 1474.07 541.306 1473.41C542.006 1472.62 542.312 1471.34 542.312 1469.47V1449.59H549.22V1469.22C549.22 1476.06 545.46 1479.5 537.983 1479.5C536.89 1479.5 535.841 1479.42 534.879 1479.25H534.923Z" fill="#13133D"/>
<path d="M555.516 1439.86H562.424V1469.06H555.516V1439.86Z" fill="#13133D"/>
<path d="M592.768 1469.06C581.706 1469.06 576.197 1464.91 576.197 1456.63C576.197 1454.56 576.547 1452.44 577.203 1450.41L584.592 1449.29C583.674 1451.28 583.193 1453.52 583.193 1455.96C583.193 1458.78 583.936 1460.77 585.467 1462.01C587.041 1463.3 589.708 1463.92 593.468 1463.92H595.916V1449.79C598.715 1449.25 601.863 1449 605.273 1449C609.033 1449 611.744 1449.83 613.405 1451.49C614.848 1452.94 615.548 1455.22 615.548 1458.24V1463.92H618.783V1469.06H608.902V1458.86C608.902 1457.08 608.64 1455.84 608.071 1455.18C607.503 1454.47 606.454 1454.14 604.88 1454.14C604.093 1454.14 603.349 1454.22 602.562 1454.35V1469.06H592.768Z" fill="#13133D"/>
<path d="M618.127 1469.06V1463.92H620.007C621.013 1463.92 621.8 1464.04 622.368 1464.25C621.1 1463.21 620.444 1461.47 620.444 1459.03C620.444 1456.25 621.406 1453.93 623.33 1452.07C625.472 1450.04 628.358 1449 632.074 1449C635.529 1449 638.152 1449.92 639.901 1451.7C641.519 1453.35 642.306 1455.67 642.306 1458.66V1469.06H618.127ZM635.572 1459.36C635.572 1455.88 634.261 1454.14 631.637 1454.14C630.282 1454.14 629.189 1454.6 628.402 1455.51C627.658 1456.38 627.265 1457.5 627.265 1458.91C627.265 1462.26 629.145 1463.92 632.905 1463.92H635.572V1459.36Z" fill="#13133D"/>
<path d="M646.723 1463.92H659.009C658.659 1458.54 655.38 1455.18 649.171 1453.9L650.789 1448.47C660.802 1450.66 665.786 1456.46 665.786 1465.87V1469.06H646.723V1463.92Z" fill="#13133D"/>
<path d="M670.9 1439.86H677.809V1463.93H681.919V1469.06H670.9V1439.86Z" fill="#13133D"/>
<path d="M681.264 1463.92H693.506C693.2 1458.41 689.833 1455.06 683.362 1453.81V1449.05L701.114 1438.48V1444.99L691.233 1450.54C697.31 1453.19 700.327 1458.33 700.327 1465.87V1469.06H681.264V1463.92Z" fill="#13133D"/>
<path d="M703.779 1434.79L708.851 1431.27C709.901 1432.35 711.3 1432.89 712.961 1432.89C714.622 1432.89 716.109 1432.35 717.465 1431.23V1435.83C716.153 1436.86 714.579 1437.4 712.655 1437.4C711.125 1437.4 709.813 1436.95 708.764 1436.08L706.053 1437.86L703.779 1434.79ZM708.108 1439.85H715.016V1469.06H708.108V1439.85Z" fill="#13133D"/>
<path d="M734.482 1428.66H730.854V1480.45H734.482V1428.66Z" fill="white"/>
<path d="M793.873 752.137H130.51V988.201H1369.57V752.137H793.873Z" fill="#13133D"/>
<path d="M100.825 1016.29V836.695H0L53.8666 950.046L0 1063.4H195.529V1016.29H100.825Z" fill="#13133D"/>
<path d="M1500 836.695H1399.17V1016.29H1304.47V1063.4H1500L1446.18 950.046L1500 836.695Z" fill="#13133D"/>
<path d="M400.019 911.278L335.834 794.293H376.671L422.099 886.515H422.58L468.227 794.293H505.173L440.856 911.278H400.019Z" fill="white"/>
<path d="M563.586 911.278H527.82L590.825 794.293H635.291L695.935 911.278H658.289L645.653 886.515H576.528L563.542 911.278H563.586ZM586.234 867.086H636.253L612.293 817.187H611.812L586.19 867.086H586.234Z" fill="white"/>
<path d="M768.076 864.166V911.313H730.693V794.328H804.891C844.941 794.872 865.141 804.994 865.535 824.797C864.835 839.879 852.724 849.356 829.201 853.194V853.5C849.357 853.907 859.763 862.841 860.463 880.232C860.725 881.353 860.944 882.474 861.162 883.629C861.381 884.954 861.687 886.381 861.993 887.909C863.961 899.866 867.065 907.678 871.306 911.313H830.032C827.977 904.927 825.922 895.246 823.779 882.203C823.604 881.183 823.517 880.436 823.429 879.893C822.162 869.601 816.959 864.369 807.733 864.166H768.076ZM768.076 813.758V844.668H799.601C816.653 844.363 825.353 839.03 825.659 828.703C825.659 818.887 816.959 813.927 799.601 813.758H768.076Z" fill="white"/>
<path d="M946.862 794.328V911.313H909.479V794.328H946.862Z" fill="white"/>
<path d="M1152.18 911.273H1099.11L1030.2 814.057L1029.72 814.363V911.239H994.695V794.254H1050.27L1116.68 886.306L1117.25 886.001V794.254H1152.18V911.239V911.273Z" fill="white"/>
<path d="M928.541 838.376C946.314 838.376 960.721 827.137 960.721 813.274C960.721 799.41 946.314 788.172 928.541 788.172C910.769 788.172 896.361 799.41 896.361 813.274C896.361 827.137 910.769 838.376 928.541 838.376Z" fill="white"/>
<path d="M928.541 834.842C943.85 834.842 956.261 825.185 956.261 813.273C956.261 801.36 943.85 791.703 928.541 791.703C913.231 791.703 900.82 801.36 900.82 813.273C900.82 825.185 913.231 834.842 928.541 834.842Z" fill="#FEBC12"/>
<path d="M481.292 960.39C481.292 962.296 480.877 963.994 479.995 965.486C479.112 966.977 477.919 968.22 476.31 969.256C474.701 970.292 472.937 971.079 470.809 971.576C468.682 972.115 466.398 972.363 463.959 972.363C462.247 972.363 460.69 972.239 459.237 972.032C457.784 971.825 456.487 971.535 455.345 971.203C454.203 970.872 453.269 970.499 452.491 970.167C451.712 969.836 451.194 969.505 450.882 969.256C450.571 969.007 450.363 968.676 450.208 968.303C450.052 967.93 450 967.392 450 966.729C450 966.273 450 965.9 450.104 965.569C450.208 965.237 450.259 965.03 450.363 964.823C450.467 964.616 450.623 964.492 450.778 964.45C450.934 964.367 451.142 964.326 451.349 964.326C451.712 964.326 452.231 964.492 452.906 964.865C453.581 965.237 454.411 965.61 455.501 966.025C456.539 966.439 457.836 966.853 459.289 967.185C460.794 967.557 462.506 967.723 464.426 967.723C465.879 967.723 467.229 967.558 468.474 967.267C469.72 966.977 470.757 966.522 471.64 965.942C472.522 965.362 473.196 964.657 473.663 963.829C474.131 963 474.39 962.047 474.39 960.97C474.39 959.81 474.079 958.816 473.404 958.029C472.729 957.2 471.899 956.496 470.809 955.874C469.72 955.253 468.526 954.673 467.125 954.176C465.724 953.679 464.323 953.14 462.921 952.601C461.468 952.063 460.067 951.483 458.718 950.82C457.369 950.157 456.123 949.411 455.034 948.541C453.944 947.671 453.062 946.636 452.439 945.434C451.816 944.233 451.453 942.824 451.453 941.167C451.453 939.51 451.816 937.977 452.595 936.651C453.373 935.325 454.463 934.207 455.812 933.295C457.213 932.384 458.822 931.721 460.742 931.224C462.662 930.768 464.686 930.52 466.917 930.52C468.059 930.52 469.201 930.603 470.342 930.768C471.484 930.934 472.574 931.141 473.56 931.39C474.546 931.638 475.48 931.928 476.258 932.26C477.037 932.591 477.556 932.84 477.815 933.047C478.074 933.254 478.23 933.42 478.282 933.502C478.386 933.627 478.438 933.751 478.49 933.958C478.541 934.124 478.593 934.331 478.593 934.621C478.593 934.911 478.593 935.201 478.593 935.615C478.593 935.988 478.593 936.32 478.542 936.61C478.542 936.9 478.438 937.148 478.386 937.355C478.282 937.563 478.178 937.687 478.074 937.811C477.971 937.935 477.763 937.935 477.607 937.935C477.296 937.935 476.881 937.77 476.258 937.48C475.635 937.19 474.909 936.858 473.975 936.485C473.093 936.113 472.003 935.781 470.809 935.491C469.564 935.201 468.215 935.035 466.71 935.035C465.309 935.035 464.063 935.201 463.025 935.491C461.987 935.781 461.105 936.195 460.431 936.693C459.756 937.19 459.237 937.811 458.874 938.474C458.511 939.178 458.355 939.883 458.355 940.67C458.355 941.788 458.666 942.783 459.341 943.611C460.015 944.44 460.846 945.144 461.935 945.766C463.025 946.387 464.271 946.967 465.672 947.506C467.073 948.044 468.474 948.541 469.927 949.08C471.38 949.619 472.781 950.199 474.182 950.82C475.584 951.441 476.829 952.229 477.919 953.099C479.009 953.969 479.891 955.004 480.565 956.164C481.24 957.366 481.551 958.733 481.551 960.349L481.292 960.39Z" fill="white"/>
<path d="M523.326 970.964C523.326 970.964 523.274 971.295 523.17 971.42C523.067 971.544 522.911 971.668 522.651 971.751C522.392 971.834 522.081 971.917 521.614 971.958C521.146 971.999 520.628 972.041 519.901 972.041C519.175 972.041 518.604 972.041 518.137 971.999C517.67 971.958 517.306 971.917 516.995 971.834C516.684 971.751 516.424 971.668 516.217 971.502C516.009 971.378 515.853 971.212 515.698 971.005L500.752 955.386V971.047C500.752 971.047 500.752 971.337 500.597 971.461C500.493 971.585 500.337 971.668 500.078 971.751C499.818 971.834 499.507 971.917 499.092 971.958C498.677 971.958 498.158 972.041 497.483 972.041C496.808 972.041 496.341 972.041 495.926 971.958C495.511 971.958 495.148 971.834 494.94 971.751C494.681 971.668 494.525 971.585 494.421 971.461C494.318 971.337 494.266 971.212 494.266 971.047V929.079C494.266 929.079 494.266 928.747 494.421 928.623C494.525 928.499 494.681 928.374 494.94 928.292C495.2 928.209 495.511 928.126 495.926 928.126C496.341 928.084 496.86 928.043 497.483 928.043C498.106 928.043 498.677 928.043 499.092 928.126C499.507 928.126 499.818 928.209 500.078 928.292C500.337 928.374 500.493 928.499 500.597 928.623C500.7 928.747 500.752 928.913 500.752 929.079V954.641L514.141 942.916C514.348 942.709 514.556 942.543 514.815 942.377C515.075 942.253 515.334 942.129 515.646 942.046C515.957 941.963 516.372 941.88 516.787 941.839C517.254 941.839 517.773 941.797 518.396 941.797C519.019 941.797 519.59 941.797 520.057 941.839C520.524 941.839 520.887 941.922 521.147 942.005C521.406 942.088 521.614 942.17 521.717 942.295C521.821 942.419 521.873 942.543 521.873 942.75C521.873 942.999 521.769 943.247 521.614 943.496C521.458 943.745 521.147 944.035 520.783 944.366L507.966 954.599L522.34 969.514C522.703 969.887 522.911 970.177 523.067 970.384C523.222 970.591 523.274 970.798 523.274 971.005L523.326 970.964Z" fill="white"/>
<path d="M542.163 933.178C542.163 934.379 541.852 935.208 541.281 935.663C540.71 936.119 539.621 936.326 538.116 936.326C536.611 936.326 535.573 936.119 535.002 935.663C534.431 935.249 534.172 934.42 534.172 933.219C534.172 932.018 534.483 931.189 535.054 930.733C535.625 930.277 536.715 930.07 538.22 930.07C539.724 930.07 540.762 930.277 541.333 930.733C541.904 931.147 542.163 931.976 542.163 933.178ZM541.385 971.003C541.385 971.003 541.385 971.293 541.229 971.417C541.126 971.541 540.97 971.624 540.71 971.707C540.451 971.79 540.14 971.873 539.725 971.914C539.309 971.914 538.79 971.997 538.116 971.997C537.441 971.997 536.974 971.997 536.559 971.914C536.144 971.914 535.781 971.79 535.573 971.707C535.313 971.624 535.158 971.541 535.054 971.417C534.95 971.293 534.898 971.168 534.898 971.003V942.748C534.898 942.748 534.898 942.458 535.054 942.333C535.158 942.209 535.313 942.085 535.573 942.002C535.832 941.919 536.144 941.836 536.559 941.795C536.974 941.795 537.493 941.753 538.116 941.753C538.738 941.753 539.309 941.753 539.725 941.795C540.14 941.836 540.451 941.919 540.71 942.002C540.97 942.085 541.126 942.209 541.229 942.333C541.333 942.458 541.385 942.582 541.385 942.748V971.003Z" fill="white"/>
<path d="M563.907 971.004C563.907 971.004 563.907 971.294 563.751 971.418C563.647 971.542 563.492 971.625 563.232 971.708C562.973 971.791 562.661 971.874 562.246 971.915C561.831 971.915 561.312 971.998 560.637 971.998C559.963 971.998 559.496 971.998 559.081 971.915C558.665 971.915 558.302 971.791 558.095 971.708C557.835 971.625 557.679 971.542 557.576 971.418C557.472 971.294 557.42 971.169 557.42 971.004V929.036C557.42 929.036 557.42 928.704 557.576 928.58C557.679 928.456 557.835 928.331 558.095 928.249C558.354 928.166 558.665 928.083 559.081 928.083C559.496 928.041 560.015 928 560.637 928C561.26 928 561.831 928 562.246 928.083C562.661 928.083 562.973 928.166 563.232 928.249C563.492 928.331 563.647 928.456 563.751 928.58C563.855 928.704 563.907 928.87 563.907 929.036V971.004Z" fill="white"/>
<path d="M586.426 971.004C586.426 971.004 586.426 971.294 586.27 971.418C586.167 971.542 586.011 971.625 585.752 971.708C585.492 971.791 585.181 971.874 584.766 971.915C584.35 971.915 583.831 971.998 583.157 971.998C582.482 971.998 582.015 971.998 581.6 971.915C581.185 971.915 580.822 971.791 580.614 971.708C580.354 971.625 580.199 971.542 580.095 971.418C579.991 971.294 579.939 971.169 579.939 971.004V929.036C579.939 929.036 579.939 928.704 580.095 928.58C580.199 928.456 580.354 928.331 580.614 928.249C580.873 928.166 581.185 928.083 581.6 928.083C582.015 928.041 582.534 928 583.157 928C583.78 928 584.35 928 584.766 928.083C585.181 928.083 585.492 928.166 585.752 928.249C586.011 928.331 586.167 928.456 586.27 928.58C586.374 928.704 586.426 928.87 586.426 929.036V971.004Z" fill="white"/>
<path d="M641.488 956.746C641.488 959.231 641.021 961.427 640.139 963.374C639.257 965.322 637.959 966.937 636.247 968.304C634.586 969.63 632.511 970.666 630.123 971.37C627.736 972.075 624.986 972.406 621.924 972.406C619.122 972.406 616.579 972.074 614.244 971.453C611.961 970.79 609.937 969.837 608.328 968.594C606.719 967.351 605.422 965.736 604.488 963.83C603.606 961.924 603.139 959.729 603.139 957.243V932.012C603.139 932.012 603.191 931.681 603.295 931.557C603.398 931.432 603.606 931.349 603.865 931.267C604.125 931.184 604.488 931.142 604.903 931.059C605.318 931.018 605.889 930.977 606.564 930.977C607.186 930.977 607.705 930.977 608.172 931.059C608.639 931.142 608.951 931.184 609.21 931.267C609.47 931.349 609.625 931.432 609.729 931.557C609.833 931.681 609.885 931.847 609.885 932.012V956.58C609.885 958.486 610.196 960.101 610.767 961.51C611.338 962.919 612.168 964.079 613.258 965.032C614.348 965.943 615.645 966.647 617.202 967.144C618.759 967.6 620.471 967.849 622.391 967.849C624.311 967.849 626.128 967.6 627.632 967.144C629.189 966.689 630.487 965.984 631.525 965.073C632.562 964.162 633.393 963.001 633.964 961.634C634.534 960.267 634.794 958.693 634.794 956.87V932.012C634.794 932.012 634.794 931.681 634.95 931.557C635.053 931.432 635.261 931.349 635.52 931.267C635.78 931.184 636.143 931.142 636.558 931.059C636.973 931.018 637.544 930.977 638.167 930.977C638.79 930.977 639.309 930.977 639.776 931.059C640.191 931.101 640.554 931.184 640.814 931.267C641.073 931.349 641.229 931.432 641.384 931.557C641.488 931.681 641.54 931.847 641.54 932.012V956.828L641.488 956.746Z" fill="white"/>
<path d="M690.734 956.418C690.734 958.903 690.422 961.099 689.748 963.088C689.073 965.035 688.087 966.734 686.79 968.101C685.493 969.468 683.884 970.545 681.964 971.291C680.044 972.037 677.864 972.409 675.373 972.409C674.335 972.409 673.349 972.327 672.467 972.161C671.585 971.995 670.703 971.747 669.873 971.374C669.042 971.001 668.16 970.587 667.33 970.006C666.5 969.468 665.617 968.805 664.631 968.101V982.228C664.631 982.228 664.631 982.56 664.476 982.684C664.372 982.808 664.216 982.891 663.957 983.015C663.697 983.098 663.386 983.181 662.971 983.222C662.556 983.222 662.037 983.264 661.362 983.264C660.687 983.264 660.22 983.264 659.805 983.222C659.39 983.181 659.027 983.098 658.819 983.015C658.612 982.933 658.404 982.85 658.3 982.684C658.196 982.56 658.145 982.394 658.145 982.228V942.746C658.145 942.746 658.145 942.415 658.248 942.29C658.352 942.166 658.508 942.083 658.715 942C658.975 941.917 659.234 941.876 659.598 941.835C659.961 941.835 660.428 941.793 660.947 941.793C661.466 941.793 661.933 941.793 662.296 941.835C662.659 941.835 662.919 941.917 663.178 942C663.438 942.083 663.593 942.166 663.645 942.29C663.749 942.415 663.801 942.539 663.801 942.746V946.558C664.891 945.688 665.929 944.9 666.915 944.279C667.901 943.657 668.939 943.078 669.924 942.663C670.91 942.249 671.948 941.917 673.038 941.71C674.076 941.503 675.218 941.379 676.411 941.379C679.006 941.379 681.185 941.793 683.002 942.58C684.818 943.367 686.271 944.486 687.413 945.853C688.554 947.22 689.384 948.836 689.903 950.659C690.422 952.482 690.682 954.429 690.682 956.501L690.734 956.418ZM683.988 956.998C683.988 955.548 683.832 954.139 683.572 952.813C683.313 951.488 682.794 950.245 682.171 949.209C681.497 948.173 680.615 947.303 679.473 946.682C678.331 946.06 676.93 945.729 675.218 945.729C674.387 945.729 673.557 945.812 672.727 946.019C671.896 946.226 671.066 946.516 670.236 946.972C669.406 947.386 668.523 947.966 667.589 948.67C666.655 949.375 665.669 950.245 664.683 951.239V962.466C666.499 964.206 668.16 965.532 669.769 966.444C671.378 967.355 673.09 967.811 674.854 967.811C676.515 967.811 677.916 967.479 679.058 966.858C680.251 966.237 681.185 965.408 681.912 964.331C682.638 963.295 683.157 962.094 683.521 960.809C683.884 959.525 684.04 958.199 684.04 956.873L683.988 956.998Z" fill="white"/>
<path d="M765.615 969.882C765.822 970.338 765.926 970.71 765.926 971C765.926 971.29 765.822 971.498 765.615 971.663C765.407 971.829 765.044 971.912 764.577 971.953C764.11 971.995 763.435 972.036 762.605 972.036C761.774 972.036 761.152 972.036 760.633 971.995C760.166 971.995 759.802 971.912 759.543 971.829C759.283 971.746 759.128 971.663 758.972 971.539C758.868 971.415 758.764 971.249 758.661 971.083L754.302 961.182H733.129L728.978 970.959C728.978 970.959 728.77 971.29 728.666 971.456C728.51 971.58 728.355 971.705 728.095 971.788C727.836 971.871 727.473 971.953 727.057 971.995C726.59 971.995 726.02 972.078 725.241 972.078C724.463 972.078 723.84 972.078 723.373 971.995C722.906 971.953 722.543 971.829 722.335 971.705C722.128 971.539 722.024 971.332 722.076 971.042C722.076 970.752 722.18 970.379 722.387 969.923L739.46 932.181C739.564 931.933 739.72 931.767 739.875 931.601C740.031 931.435 740.29 931.353 740.602 931.27C740.913 931.187 741.328 931.145 741.847 931.104C742.366 931.104 742.989 931.062 743.819 931.062C744.649 931.062 745.324 931.063 745.895 931.104C746.466 931.104 746.881 931.187 747.244 931.27C747.607 931.353 747.867 931.477 748.023 931.643C748.23 931.808 748.334 931.974 748.438 932.223L765.511 969.965L765.615 969.882ZM743.715 936.531L734.945 956.79H752.641L743.767 936.531H743.715Z" fill="white"/>
<path d="M802.825 966.692C802.825 967.065 802.825 967.355 802.825 967.604C802.825 967.852 802.773 968.101 802.669 968.267C802.565 968.432 802.513 968.598 802.461 968.722C802.41 968.846 802.15 969.054 801.839 969.302C801.527 969.551 800.956 969.882 800.178 970.297C799.4 970.711 798.518 971.042 797.532 971.332C796.546 971.622 795.456 971.871 794.314 972.078C793.173 972.244 791.979 972.368 790.734 972.368C788.191 972.368 785.959 972.037 783.987 971.374C782.015 970.711 780.355 969.717 779.057 968.432C777.76 967.148 776.722 965.574 776.048 963.709C775.373 961.845 775.01 959.691 775.01 957.246C775.01 954.471 775.425 952.068 776.307 950.079C777.189 948.09 778.331 946.433 779.784 945.149C781.289 943.865 783.001 942.912 785.025 942.29C787.049 941.669 789.177 941.379 791.512 941.379C792.654 941.379 793.743 941.462 794.781 941.627C795.819 941.793 796.805 942 797.687 942.29C798.569 942.58 799.348 942.87 800.074 943.243C800.801 943.616 801.268 943.906 801.579 944.155C801.891 944.403 802.098 944.61 802.202 944.735C802.306 944.9 802.41 945.066 802.513 945.273C802.617 945.48 802.669 945.687 802.669 945.936C802.669 946.185 802.669 946.516 802.669 946.889C802.669 947.718 802.565 948.256 802.306 948.588C802.098 948.919 801.787 949.085 801.424 949.085C801.008 949.085 800.593 948.919 800.074 948.546C799.555 948.215 798.933 947.842 798.102 947.386C797.324 946.972 796.39 946.599 795.248 946.226C794.107 945.853 792.809 945.729 791.304 945.729C788.191 945.729 785.804 946.682 784.143 948.588C782.482 950.493 781.652 953.269 781.652 956.915C781.652 958.738 781.86 960.353 782.275 961.721C782.69 963.088 783.365 964.248 784.195 965.159C785.025 966.071 786.063 966.775 787.257 967.231C788.502 967.687 789.851 967.894 791.46 967.894C793.069 967.894 794.262 967.686 795.404 967.314C796.546 966.941 797.532 966.527 798.31 966.071C799.14 965.615 799.815 965.201 800.386 964.869C800.957 964.496 801.372 964.331 801.683 964.331C801.891 964.331 802.046 964.331 802.15 964.455C802.254 964.579 802.41 964.662 802.461 964.869C802.565 965.076 802.617 965.325 802.669 965.615C802.669 965.905 802.721 966.278 802.721 966.692H802.825Z" fill="white"/>
<path d="M842.163 971.039C842.163 971.288 842.059 971.495 841.851 971.619C841.644 971.744 841.333 971.826 840.969 971.909C840.606 971.992 840.087 971.992 839.361 971.992C838.634 971.992 838.115 971.992 837.752 971.909C837.337 971.868 837.025 971.744 836.87 971.619C836.714 971.495 836.61 971.288 836.61 971.039V968.222C835.054 969.548 833.341 970.584 831.421 971.288C829.501 971.992 827.529 972.365 825.401 972.365C823.533 972.365 821.873 972.158 820.368 971.785C818.863 971.412 817.565 970.832 816.528 970.086C815.438 969.341 814.659 968.471 814.037 967.394C813.466 966.316 813.154 965.115 813.154 963.748C813.154 962.173 813.57 960.765 814.4 959.605C815.23 958.445 816.372 957.451 817.877 956.663C819.382 955.876 821.25 955.296 823.481 954.923C825.661 954.55 828.152 954.343 830.902 954.343H835.78V952.147C835.78 951.07 835.624 950.076 835.365 949.247C835.105 948.419 834.586 947.715 833.964 947.176C833.341 946.637 832.511 946.223 831.473 945.933C830.435 945.643 829.19 945.519 827.685 945.519C826.076 945.519 824.675 945.685 823.377 945.975C822.08 946.265 820.99 946.596 820.056 946.969C819.122 947.342 818.292 947.673 817.669 947.963C817.046 948.253 816.528 948.419 816.216 948.419C816.009 948.419 815.801 948.419 815.645 948.295C815.49 948.17 815.334 948.087 815.23 947.922C815.126 947.756 815.023 947.549 814.971 947.259C814.919 946.969 814.919 946.72 814.919 946.389C814.919 945.85 814.919 945.436 815.074 945.146C815.23 944.856 815.386 944.566 815.749 944.276C816.112 943.986 816.735 943.696 817.565 943.323C818.447 942.95 819.434 942.619 820.575 942.329C821.717 942.039 822.91 941.79 824.26 941.583C825.609 941.376 826.958 941.293 828.307 941.293C830.85 941.293 833.03 941.542 834.794 941.997C836.558 942.453 838.011 943.116 839.101 944.027C840.191 944.939 841.021 946.016 841.488 947.342C842.007 948.667 842.215 950.2 842.215 951.94V970.998L842.163 971.039ZM835.676 958.113H830.124C828.359 958.113 826.802 958.238 825.505 958.486C824.208 958.735 823.118 959.066 822.236 959.563C821.353 960.019 820.731 960.599 820.316 961.262C819.9 961.925 819.693 962.671 819.693 963.541C819.693 964.991 820.264 966.151 821.457 967.021C822.651 967.891 824.26 968.305 826.335 968.305C828.048 968.305 829.605 967.974 831.058 967.269C832.511 966.565 834.016 965.529 835.624 964.079V958.072L835.676 958.113Z" fill="white"/>
<path d="M888.4 971.006C888.4 971.006 888.4 971.337 888.244 971.462C888.14 971.586 887.985 971.669 887.777 971.752C887.569 971.834 887.258 971.876 886.895 971.917C886.532 971.917 886.065 972 885.546 972C884.975 972 884.56 972 884.145 971.917C883.781 971.917 883.47 971.834 883.262 971.752C883.003 971.669 882.847 971.586 882.743 971.462C882.64 971.337 882.588 971.172 882.588 971.006V967.277C880.72 968.893 878.799 970.136 876.776 971.047C874.752 971.959 872.572 972.415 870.185 972.415C867.591 972.415 865.359 972 863.543 971.213C861.727 970.426 860.222 969.307 859.08 967.94C857.938 966.573 857.108 964.957 856.589 963.093C856.07 961.229 855.811 959.281 855.811 957.251C855.811 954.807 856.122 952.611 856.797 950.664C857.471 948.717 858.405 947.018 859.703 945.651C861 944.284 862.557 943.207 864.477 942.461C866.397 941.715 868.576 941.342 871.067 941.342C873.143 941.342 875.011 941.715 876.724 942.42C878.436 943.124 880.149 944.201 881.809 945.61V929.204C881.809 929.204 881.809 928.914 881.965 928.789C882.069 928.665 882.224 928.541 882.484 928.458C882.743 928.375 883.107 928.334 883.47 928.251C883.885 928.209 884.404 928.168 885.027 928.168C885.649 928.168 886.22 928.168 886.635 928.251C887.051 928.292 887.362 928.375 887.621 928.458C887.881 928.541 888.037 928.624 888.14 928.789C888.244 928.914 888.296 929.079 888.296 929.204V971.047L888.4 971.006ZM881.913 951.12C880.149 949.38 878.436 948.054 876.828 947.143C875.167 946.231 873.454 945.775 871.69 945.775C870.029 945.775 868.628 946.107 867.487 946.728C866.345 947.35 865.411 948.178 864.684 949.214C863.958 950.25 863.439 951.41 863.128 952.694C862.816 953.978 862.661 955.304 862.661 956.671C862.661 958.08 862.816 959.489 863.076 960.856C863.335 962.223 863.854 963.424 864.529 964.501C865.203 965.537 866.137 966.407 867.227 967.029C868.369 967.65 869.77 967.982 871.483 967.982C872.365 967.982 873.195 967.899 873.973 967.692C874.752 967.526 875.582 967.194 876.412 966.739C877.243 966.283 878.125 965.744 879.059 965.04C879.993 964.336 880.927 963.466 881.965 962.471V951.161L881.913 951.12Z" fill="white"/>
<path d="M934.636 955.628C934.636 956.456 934.377 957.036 933.858 957.368C933.339 957.699 932.768 957.865 932.093 957.865H908.793C908.793 959.439 909.001 960.848 909.364 962.091C909.779 963.333 910.402 964.411 911.336 965.322C912.27 966.234 913.464 966.896 914.917 967.394C916.37 967.891 918.186 968.098 920.314 968.098C922.026 968.098 923.479 967.974 924.828 967.766C926.178 967.559 927.267 967.311 928.253 967.021C929.239 966.731 930.018 966.482 930.64 966.275C931.263 966.068 931.73 965.944 932.041 965.944C932.249 965.944 932.405 965.943 932.508 966.068C932.664 966.151 932.768 966.233 932.872 966.399C932.924 966.565 933.027 966.731 933.027 967.021C933.027 967.269 933.079 967.601 933.079 967.974C933.079 968.264 933.079 968.471 933.079 968.678C933.079 968.885 933.028 969.051 932.976 969.216C932.976 969.382 932.872 969.506 932.768 969.631C932.664 969.755 932.56 969.879 932.405 970.003C932.249 970.128 931.834 970.294 931.107 970.584C930.381 970.832 929.499 971.081 928.357 971.371C927.215 971.619 925.918 971.826 924.465 972.034C922.96 972.241 921.403 972.324 919.743 972.324C916.837 972.324 914.294 971.992 912.114 971.371C909.935 970.749 908.067 969.755 906.562 968.471C905.057 967.186 903.967 965.571 903.189 963.665C902.41 961.759 902.047 959.522 902.047 956.953C902.047 954.385 902.462 952.355 903.24 950.407C904.019 948.46 905.161 946.845 906.665 945.477C908.17 944.11 909.935 943.074 912.062 942.37C914.138 941.666 916.525 941.293 919.12 941.293C921.922 941.293 924.257 941.666 926.229 942.37C928.201 943.074 929.81 944.027 931.055 945.229C932.301 946.43 933.235 947.839 933.806 949.455C934.377 951.07 934.688 952.81 934.688 954.633V955.586L934.636 955.628ZM928.149 954.095C928.253 951.36 927.475 949.247 925.866 947.673C924.257 946.099 921.922 945.353 918.757 945.353C917.148 945.353 915.747 945.602 914.501 946.057C913.308 946.554 912.27 947.176 911.44 947.963C910.609 948.75 909.987 949.703 909.52 950.739C909.053 951.816 908.845 952.893 908.793 954.053H928.098L928.149 954.095Z" fill="white"/>
<path d="M1001.06 971.003C1001.06 971.003 1001.06 971.293 1000.9 971.418C1000.8 971.542 1000.65 971.625 1000.39 971.708C1000.18 971.79 999.815 971.873 999.4 971.915C998.984 971.915 998.466 971.998 997.843 971.998C997.22 971.998 996.649 971.998 996.234 971.915C995.819 971.915 995.456 971.79 995.248 971.708C994.989 971.625 994.833 971.542 994.729 971.418C994.625 971.293 994.574 971.169 994.574 971.003V953.81C994.574 952.609 994.418 951.531 994.158 950.537C993.899 949.543 993.484 948.714 992.913 948.01C992.342 947.306 991.616 946.767 990.733 946.394C989.851 946.021 988.813 945.814 987.568 945.814C986.063 945.814 984.558 946.27 983.053 947.181C981.548 948.093 979.888 949.46 978.071 951.241V971.003C978.071 971.003 978.019 971.293 977.916 971.418C977.812 971.542 977.656 971.625 977.397 971.708C977.137 971.79 976.826 971.873 976.411 971.915C975.996 971.956 975.477 971.998 974.854 971.998C974.231 971.998 973.712 971.998 973.297 971.915C972.882 971.832 972.519 971.79 972.259 971.708C972 971.625 971.844 971.542 971.74 971.418C971.637 971.293 971.585 971.169 971.585 971.003V953.81C971.585 952.609 971.429 951.531 971.169 950.537C970.91 949.543 970.443 948.714 969.872 948.01C969.301 947.306 968.575 946.767 967.693 946.394C966.81 946.021 965.773 945.814 964.579 945.814C963.074 945.814 961.569 946.27 960.064 947.181C958.559 948.093 956.899 949.46 955.082 951.241V971.003C955.082 971.003 955.082 971.293 954.927 971.418C954.823 971.542 954.667 971.625 954.408 971.708C954.2 971.79 953.837 971.873 953.422 971.915C953.007 971.956 952.488 971.998 951.813 971.998C951.138 971.998 950.671 971.998 950.256 971.915C949.841 971.915 949.478 971.79 949.27 971.708C949.011 971.625 948.855 971.542 948.751 971.418C948.648 971.293 948.596 971.169 948.596 971.003V942.748C948.596 942.748 948.596 942.458 948.7 942.334C948.751 942.21 948.907 942.127 949.167 942.003C949.426 941.878 949.685 941.837 950.049 941.796C950.412 941.796 950.931 941.754 951.502 941.754C952.073 941.754 952.54 941.754 952.955 941.796C953.318 941.796 953.629 941.878 953.837 942.003C954.045 942.086 954.2 942.21 954.304 942.334C954.408 942.458 954.46 942.583 954.46 942.748V946.477C956.432 944.696 958.404 943.411 960.272 942.583C962.14 941.754 964.06 941.34 965.928 941.34C967.381 941.34 968.73 941.464 969.872 941.754C971.066 942.044 972.052 942.417 972.986 942.914C973.868 943.411 974.646 943.991 975.269 944.654C975.892 945.317 976.411 946.104 976.826 946.933C978.019 945.897 979.109 945.027 980.199 944.323C981.289 943.618 982.275 943.038 983.261 942.583C984.247 942.127 985.181 941.837 986.115 941.63C987.049 941.423 987.983 941.34 988.917 941.34C991.2 941.34 993.12 941.671 994.677 942.293C996.234 942.914 997.48 943.784 998.414 944.861C999.348 945.939 1000.07 947.181 1000.44 948.631C1000.85 950.081 1001.06 951.573 1001.06 953.189V971.045V971.003Z" fill="white"/>
<path d="M1033.08 971.789L1028.36 982.188C1028.2 982.52 1027.79 982.768 1027.16 982.975C1026.54 983.141 1025.55 983.224 1024.21 983.224C1023.53 983.224 1022.96 983.224 1022.54 983.141C1022.13 983.1 1021.82 983.017 1021.56 982.892C1021.3 982.768 1021.2 982.602 1021.2 982.395C1021.2 982.188 1021.2 981.94 1021.4 981.65L1026.28 971.831C1026.28 971.831 1025.81 971.624 1025.61 971.417C1025.4 971.251 1025.24 971.044 1025.19 970.837L1012.58 943.825C1012.37 943.369 1012.27 943.037 1012.27 942.789C1012.27 942.54 1012.37 942.333 1012.58 942.209C1012.79 942.084 1013.15 941.96 1013.62 941.919C1014.09 941.877 1014.71 941.836 1015.49 941.836C1016.27 941.836 1016.89 941.836 1017.36 941.877C1017.82 941.877 1018.13 941.96 1018.44 942.043C1018.7 942.126 1018.91 942.25 1019.02 942.416C1019.12 942.582 1019.28 942.789 1019.38 943.079L1029.5 965.741H1029.6L1039.36 942.954C1039.51 942.54 1039.72 942.292 1039.93 942.167C1040.14 942.043 1040.5 941.96 1040.91 941.919C1041.33 941.877 1042 941.836 1042.83 941.836C1043.56 941.836 1044.18 941.836 1044.65 941.919C1045.12 942.002 1045.48 942.084 1045.69 942.209C1045.9 942.333 1046 942.54 1046 942.789C1046 943.037 1045.95 943.369 1045.79 943.742L1033.08 971.831V971.789Z" fill="white"/>
</svg>
